<mxfile host="app.diagrams.net" agent="Mozilla/5.0 (Macintosh; Intel Mac OS X 10_15_7) AppleWebKit/537.36 (KHTML, like Gecko) Chrome/133.0.0.0 Safari/537.36" version="26.0.16">
  <diagram name="Page-1" id="AGgCzB51In5932Ol8384">
    <mxGraphModel dx="3449" dy="1067" grid="1" gridSize="10" guides="1" tooltips="1" connect="1" arrows="1" fold="1" page="1" pageScale="1" pageWidth="850" pageHeight="1100" math="0" shadow="0">
      <root>
        <mxCell id="0" />
        <mxCell id="1" parent="0" />
        <mxCell id="RWUTQcGEIA5J2wbb4hyl-1" value="&lt;p style=&quot;margin: 4px 0px 0px; text-align: center;&quot;&gt;&lt;span style=&quot;background-color: initial;&quot;&gt;&lt;font&gt;&lt;i&gt;&amp;lt;&amp;lt; enum &amp;gt;&amp;gt;&lt;/i&gt;&lt;/font&gt;&lt;/span&gt;&lt;/p&gt;&lt;p style=&quot;margin: 4px 0px 0px; text-align: center;&quot;&gt;ExpenseSplitType&lt;/p&gt;&lt;hr style=&quot;border-style: solid;&quot;&gt;&lt;p style=&quot;margin: 0px 0px 0px 4px;&quot;&gt;&lt;font&gt;&lt;br&gt;&lt;/font&gt;&lt;/p&gt;&lt;p style=&quot;margin: 0px 0px 0px 4px;&quot;&gt;&amp;nbsp; &amp;nbsp;&lt;span style=&quot;background-color: transparent;&quot;&gt;&amp;nbsp;&lt;/span&gt;&lt;span style=&quot;background-color: transparent;&quot;&gt;EQUAL,&lt;/span&gt;&lt;/p&gt;&lt;p style=&quot;margin: 0px 0px 0px 4px;&quot;&gt;&amp;nbsp; &amp;nbsp; UNEQUAL,&lt;/p&gt;&lt;p style=&quot;margin: 0px 0px 0px 4px;&quot;&gt;&amp;nbsp; &amp;nbsp; PERCENTAGE;&lt;/p&gt;" style="verticalAlign=top;align=left;overflow=fill;html=1;whiteSpace=wrap;strokeWidth=2;fontSize=16;fillColor=none;spacing=2;" vertex="1" parent="1">
          <mxGeometry x="270" y="566" width="164.5" height="160" as="geometry" />
        </mxCell>
        <mxCell id="RWUTQcGEIA5J2wbb4hyl-2" value="&lt;p style=&quot;margin: 4px 0px 0px; text-align: center;&quot;&gt;&lt;span style=&quot;background-color: initial;&quot;&gt;&lt;font&gt;&lt;i&gt;&amp;lt;&amp;lt; Class &amp;gt;&amp;gt;&lt;/i&gt;&lt;/font&gt;&lt;/span&gt;&lt;/p&gt;&lt;p style=&quot;margin: 4px 0px 0px; text-align: center;&quot;&gt;Balance&lt;/p&gt;&lt;hr style=&quot;border-style: solid;&quot;&gt;&lt;p style=&quot;margin: 0px 0px 0px 4px;&quot;&gt;&lt;font&gt;&lt;br&gt;&lt;/font&gt;&lt;/p&gt;&lt;p style=&quot;margin: 0px 0px 0px 4px;&quot;&gt;&amp;nbsp; &amp;nbsp;&lt;span style=&quot;background-color: transparent;&quot;&gt;&amp;nbsp;&lt;/span&gt;&lt;span style=&quot;background-color: transparent;&quot;&gt;double amountOwe;&lt;/span&gt;&lt;/p&gt;&lt;p style=&quot;margin: 0px 0px 0px 4px;&quot;&gt;&amp;nbsp; &amp;nbsp; double amountGetBack;&lt;/p&gt;" style="verticalAlign=top;align=left;overflow=fill;html=1;whiteSpace=wrap;strokeWidth=2;fontSize=16;fillColor=none;spacing=2;" vertex="1" parent="1">
          <mxGeometry x="589.38" y="629" width="265" height="150" as="geometry" />
        </mxCell>
        <mxCell id="RWUTQcGEIA5J2wbb4hyl-38" style="edgeStyle=orthogonalEdgeStyle;rounded=0;orthogonalLoop=1;jettySize=auto;html=1;entryX=0;entryY=0.5;entryDx=0;entryDy=0;fontSize=16;strokeWidth=2;" edge="1" parent="1" source="RWUTQcGEIA5J2wbb4hyl-3" target="RWUTQcGEIA5J2wbb4hyl-4">
          <mxGeometry relative="1" as="geometry" />
        </mxCell>
        <mxCell id="RWUTQcGEIA5J2wbb4hyl-56" value="HAS-A" style="edgeLabel;html=1;align=center;verticalAlign=middle;resizable=0;points=[];fontSize=16;" vertex="1" connectable="0" parent="RWUTQcGEIA5J2wbb4hyl-38">
          <mxGeometry x="0.0046" y="2" relative="1" as="geometry">
            <mxPoint x="1" as="offset" />
          </mxGeometry>
        </mxCell>
        <mxCell id="RWUTQcGEIA5J2wbb4hyl-3" value="&lt;p style=&quot;margin: 4px 0px 0px; text-align: center;&quot;&gt;&lt;span style=&quot;background-color: initial;&quot;&gt;&lt;font&gt;&lt;i&gt;&amp;lt;&amp;lt; Class &amp;gt;&amp;gt;&lt;/i&gt;&lt;/font&gt;&lt;/span&gt;&lt;/p&gt;&lt;p style=&quot;margin: 4px 0px 0px; text-align: center;&quot;&gt;BalanceSheetController&lt;/p&gt;&lt;hr style=&quot;border-style: solid;&quot;&gt;&lt;p style=&quot;margin: 0px 0px 0px 4px;&quot;&gt;&lt;font&gt;&lt;br&gt;&lt;/font&gt;&lt;/p&gt;&lt;p style=&quot;margin: 0px 0px 0px 4px;&quot;&gt;&amp;nbsp; &amp;nbsp;&lt;span style=&quot;background-color: transparent;&quot;&gt;&amp;nbsp;&lt;/span&gt;&lt;span style=&quot;background-color: transparent;&quot;&gt;void updateUserExpenseBalanceSheet(User expensePaidBy,&amp;nbsp;&lt;/span&gt;&lt;/p&gt;&lt;p style=&quot;margin: 0px 0px 0px 4px;&quot;&gt;&lt;span style=&quot;background-color: transparent;&quot;&gt;&lt;span style=&quot;white-space: pre;&quot;&gt;&#x9;&lt;/span&gt;&lt;span style=&quot;white-space: pre;&quot;&gt;&#x9;&lt;/span&gt;&lt;span style=&quot;white-space: pre;&quot;&gt;&#x9;&lt;/span&gt;&lt;span style=&quot;white-space: pre;&quot;&gt;&#x9;&lt;/span&gt;&lt;span style=&quot;white-space: pre;&quot;&gt;&#x9;&lt;/span&gt;&lt;span style=&quot;white-space: pre;&quot;&gt;&#x9;&lt;/span&gt;&lt;span style=&quot;white-space: pre;&quot;&gt;&#x9;&lt;/span&gt;&lt;span style=&quot;white-space: pre;&quot;&gt;&#x9;&lt;/span&gt;&lt;span style=&quot;white-space: pre;&quot;&gt;&#x9;&lt;/span&gt;List&amp;lt;Split&amp;gt; splits,&amp;nbsp;&lt;/span&gt;&lt;/p&gt;&lt;p style=&quot;margin: 0px 0px 0px 4px;&quot;&gt;&lt;span style=&quot;background-color: transparent;&quot;&gt;&lt;span style=&quot;white-space: pre;&quot;&gt;&#x9;&lt;/span&gt;&lt;span style=&quot;white-space: pre;&quot;&gt;&#x9;&lt;/span&gt;&lt;span style=&quot;white-space: pre;&quot;&gt;&#x9;&lt;/span&gt;&lt;span style=&quot;white-space: pre;&quot;&gt;&#x9;&lt;/span&gt;&lt;span style=&quot;white-space: pre;&quot;&gt;&#x9;&lt;/span&gt;&lt;span style=&quot;white-space: pre;&quot;&gt;&#x9;&lt;/span&gt;&lt;span style=&quot;white-space: pre;&quot;&gt;&#x9;&lt;/span&gt;&lt;span style=&quot;white-space: pre;&quot;&gt;&#x9;&lt;/span&gt;&lt;span style=&quot;white-space: pre;&quot;&gt;&#x9;&lt;/span&gt;double totalExpenseAmount) {&amp;nbsp;&lt;/span&gt;&lt;/p&gt;&lt;p style=&quot;margin: 0px 0px 0px 4px;&quot;&gt;&lt;span style=&quot;background-color: transparent;&quot;&gt;&amp;nbsp; &amp;nbsp;&amp;nbsp;&lt;/span&gt;&lt;/p&gt;&lt;p style=&quot;margin: 0px 0px 0px 4px;&quot;&gt;&lt;span style=&quot;background-color: transparent;&quot;&gt;&amp;nbsp; &amp;nbsp; }&lt;/span&gt;&lt;/p&gt;&lt;p style=&quot;margin: 0px 0px 0px 4px;&quot;&gt;&lt;span style=&quot;background-color: transparent;&quot;&gt;&lt;br&gt;&lt;/span&gt;&lt;/p&gt;&lt;p style=&quot;margin: 0px 0px 0px 4px;&quot;&gt;&lt;span style=&quot;background-color: transparent;&quot;&gt;&amp;nbsp; &amp;nbsp;&amp;nbsp;&lt;/span&gt;&lt;span style=&quot;background-color: transparent;&quot;&gt;void showBalanceSheetOfUser(User user) {&lt;/span&gt;&lt;/p&gt;&lt;p style=&quot;margin: 0px 0px 0px 4px;&quot;&gt;&lt;span style=&quot;background-color: transparent;&quot;&gt;&lt;br&gt;&lt;/span&gt;&lt;/p&gt;&lt;p style=&quot;margin: 0px 0px 0px 4px;&quot;&gt;&lt;span style=&quot;background-color: transparent;&quot;&gt;&amp;nbsp; &amp;nbsp; }&lt;/span&gt;&lt;/p&gt;" style="verticalAlign=top;align=left;overflow=fill;html=1;whiteSpace=wrap;strokeWidth=2;fontSize=16;fillColor=none;spacing=2;" vertex="1" parent="1">
          <mxGeometry x="-210" y="230" width="560" height="280" as="geometry" />
        </mxCell>
        <mxCell id="RWUTQcGEIA5J2wbb4hyl-39" style="edgeStyle=orthogonalEdgeStyle;rounded=0;orthogonalLoop=1;jettySize=auto;html=1;entryX=0.5;entryY=0;entryDx=0;entryDy=0;fontSize=16;strokeWidth=2;" edge="1" parent="1" source="RWUTQcGEIA5J2wbb4hyl-4" target="RWUTQcGEIA5J2wbb4hyl-2">
          <mxGeometry relative="1" as="geometry" />
        </mxCell>
        <mxCell id="RWUTQcGEIA5J2wbb4hyl-57" value="HAS-A" style="edgeLabel;html=1;align=center;verticalAlign=middle;resizable=0;points=[];fontSize=16;" vertex="1" connectable="0" parent="RWUTQcGEIA5J2wbb4hyl-39">
          <mxGeometry x="-0.1878" y="3" relative="1" as="geometry">
            <mxPoint as="offset" />
          </mxGeometry>
        </mxCell>
        <mxCell id="RWUTQcGEIA5J2wbb4hyl-4" value="&lt;p style=&quot;margin: 4px 0px 0px; text-align: center;&quot;&gt;&lt;span style=&quot;background-color: initial;&quot;&gt;&lt;font&gt;&lt;i&gt;&amp;lt;&amp;lt; Class &amp;gt;&amp;gt;&lt;/i&gt;&lt;/font&gt;&lt;/span&gt;&lt;/p&gt;&lt;p style=&quot;margin: 4px 0px 0px; text-align: center;&quot;&gt;UserExpenseBalanceSheet&lt;/p&gt;&lt;hr style=&quot;border-style: solid;&quot;&gt;&lt;p style=&quot;margin: 0px 0px 0px 4px;&quot;&gt;&lt;font&gt;&lt;br&gt;&lt;/font&gt;&lt;/p&gt;&lt;p style=&quot;margin: 0px 0px 0px 4px;&quot;&gt;&amp;nbsp; &amp;nbsp;&lt;span style=&quot;background-color: transparent;&quot;&gt;&amp;nbsp;&lt;/span&gt;&lt;span style=&quot;background-color: transparent;&quot;&gt;Map&amp;lt;String, Balance&amp;gt; userVsBalance;&lt;/span&gt;&lt;/p&gt;&lt;p style=&quot;margin: 0px 0px 0px 4px;&quot;&gt;&amp;nbsp; &amp;nbsp; double totalYourExpense;&lt;/p&gt;&lt;p style=&quot;margin: 0px 0px 0px 4px;&quot;&gt;&amp;nbsp; &amp;nbsp; double totalPayment;&lt;/p&gt;&lt;p style=&quot;margin: 0px 0px 0px 4px;&quot;&gt;&amp;nbsp; &amp;nbsp; double totalYouOwe;&lt;/p&gt;&lt;p style=&quot;margin: 0px 0px 0px 4px;&quot;&gt;&amp;nbsp; &amp;nbsp; double totalYouGetBack;&lt;/p&gt;" style="verticalAlign=top;align=left;overflow=fill;html=1;whiteSpace=wrap;strokeWidth=2;fontSize=16;fillColor=none;spacing=2;" vertex="1" parent="1">
          <mxGeometry x="560" y="269" width="323.75" height="200" as="geometry" />
        </mxCell>
        <mxCell id="RWUTQcGEIA5J2wbb4hyl-35" style="edgeStyle=orthogonalEdgeStyle;rounded=0;orthogonalLoop=1;jettySize=auto;html=1;entryX=0.5;entryY=0;entryDx=0;entryDy=0;fontSize=16;strokeWidth=2;" edge="1" parent="1" source="RWUTQcGEIA5J2wbb4hyl-5" target="RWUTQcGEIA5J2wbb4hyl-24">
          <mxGeometry relative="1" as="geometry">
            <Array as="points">
              <mxPoint x="109" y="760" />
            </Array>
          </mxGeometry>
        </mxCell>
        <mxCell id="RWUTQcGEIA5J2wbb4hyl-53" value="HAS-A" style="edgeLabel;html=1;align=center;verticalAlign=middle;resizable=0;points=[];fontSize=16;" vertex="1" connectable="0" parent="RWUTQcGEIA5J2wbb4hyl-35">
          <mxGeometry x="-0.3835" y="3" relative="1" as="geometry">
            <mxPoint as="offset" />
          </mxGeometry>
        </mxCell>
        <mxCell id="RWUTQcGEIA5J2wbb4hyl-36" style="edgeStyle=orthogonalEdgeStyle;rounded=0;orthogonalLoop=1;jettySize=auto;html=1;entryX=0;entryY=0.5;entryDx=0;entryDy=0;exitX=1;exitY=0.25;exitDx=0;exitDy=0;fontSize=16;strokeWidth=2;" edge="1" parent="1" source="RWUTQcGEIA5J2wbb4hyl-5" target="RWUTQcGEIA5J2wbb4hyl-1">
          <mxGeometry relative="1" as="geometry" />
        </mxCell>
        <mxCell id="RWUTQcGEIA5J2wbb4hyl-54" value="HAS-A" style="edgeLabel;html=1;align=center;verticalAlign=middle;resizable=0;points=[];fontSize=16;" vertex="1" connectable="0" parent="RWUTQcGEIA5J2wbb4hyl-36">
          <mxGeometry x="-0.127" relative="1" as="geometry">
            <mxPoint as="offset" />
          </mxGeometry>
        </mxCell>
        <mxCell id="RWUTQcGEIA5J2wbb4hyl-5" value="&lt;p style=&quot;margin: 4px 0px 0px; text-align: center;&quot;&gt;&lt;span style=&quot;background-color: initial;&quot;&gt;&lt;font&gt;&lt;i&gt;&amp;lt;&amp;lt; Class &amp;gt;&amp;gt;&lt;/i&gt;&lt;/font&gt;&lt;/span&gt;&lt;/p&gt;&lt;p style=&quot;margin: 4px 0px 0px; text-align: center;&quot;&gt;Expense&lt;/p&gt;&lt;hr style=&quot;border-style: solid;&quot;&gt;&lt;p style=&quot;margin: 0px 0px 0px 4px;&quot;&gt;&lt;font&gt;&lt;br&gt;&lt;/font&gt;&lt;/p&gt;&lt;p style=&quot;margin: 0px 0px 0px 4px;&quot;&gt;&amp;nbsp; &amp;nbsp;&lt;span style=&quot;background-color: transparent;&quot;&gt;&amp;nbsp;&lt;/span&gt;&lt;span style=&quot;background-color: transparent;&quot;&gt;String expenseId;&lt;/span&gt;&lt;br&gt;&lt;/p&gt;&lt;p style=&quot;margin: 0px 0px 0px 4px;&quot;&gt;&amp;nbsp; &amp;nbsp; String description;&lt;/p&gt;&lt;p style=&quot;margin: 0px 0px 0px 4px;&quot;&gt;&amp;nbsp; &amp;nbsp; double expenseAmount;&lt;/p&gt;&lt;p style=&quot;margin: 0px 0px 0px 4px;&quot;&gt;&amp;nbsp; &amp;nbsp; User paidByUser;&lt;/p&gt;&lt;p style=&quot;margin: 0px 0px 0px 4px;&quot;&gt;&amp;nbsp; &amp;nbsp; ExpenseSplitType splitType;&lt;/p&gt;&lt;p style=&quot;margin: 0px 0px 0px 4px;&quot;&gt;&amp;nbsp; &amp;nbsp; List&amp;lt;Split&amp;gt; splitDetails;&lt;/p&gt;" style="verticalAlign=top;align=left;overflow=fill;html=1;whiteSpace=wrap;strokeWidth=2;fontSize=16;fillColor=none;spacing=2;" vertex="1" parent="1">
          <mxGeometry x="-645" y="590" width="270" height="220" as="geometry" />
        </mxCell>
        <mxCell id="RWUTQcGEIA5J2wbb4hyl-6" value="&lt;p style=&quot;margin: 4px 0px 0px; text-align: center;&quot;&gt;&lt;span style=&quot;background-color: initial;&quot;&gt;&lt;font&gt;&lt;i&gt;&amp;lt;&amp;lt; interface&amp;nbsp;&amp;gt;&amp;gt;&lt;/i&gt;&lt;/font&gt;&lt;/span&gt;&lt;/p&gt;&lt;p style=&quot;margin: 4px 0px 0px; text-align: center;&quot;&gt;&lt;b&gt;ExpenseSplit&lt;/b&gt;&lt;/p&gt;&lt;hr style=&quot;border-style: solid;&quot;&gt;&lt;p style=&quot;margin: 0px 0px 0px 4px;&quot;&gt;&lt;font&gt;&lt;br&gt;&lt;/font&gt;&lt;/p&gt;&lt;p style=&quot;margin: 0px 0px 0px 4px;&quot;&gt;&amp;nbsp; &amp;nbsp;&lt;span style=&quot;background-color: transparent;&quot;&gt;&amp;nbsp;&lt;/span&gt;&lt;span style=&quot;background-color: transparent;&quot;&gt;&amp;nbsp;&lt;/span&gt;&lt;span style=&quot;background-color: transparent;&quot;&gt;void validateSplitRequest(List&amp;lt;Split&amp;gt; splitList, double totalAmount);&lt;/span&gt;&lt;/p&gt;" style="verticalAlign=top;align=left;overflow=fill;html=1;whiteSpace=wrap;strokeWidth=2;fontSize=16;fillColor=none;spacing=2;" vertex="1" parent="1">
          <mxGeometry x="-1470" y="270" width="520" height="140" as="geometry" />
        </mxCell>
        <mxCell id="RWUTQcGEIA5J2wbb4hyl-7" style="edgeStyle=orthogonalEdgeStyle;rounded=0;orthogonalLoop=1;jettySize=auto;html=1;entryX=0.25;entryY=1;entryDx=0;entryDy=0;strokeWidth=2;fontSize=16;" edge="1" parent="1" source="RWUTQcGEIA5J2wbb4hyl-9" target="RWUTQcGEIA5J2wbb4hyl-6">
          <mxGeometry relative="1" as="geometry" />
        </mxCell>
        <mxCell id="RWUTQcGEIA5J2wbb4hyl-8" value="extends" style="edgeLabel;html=1;align=center;verticalAlign=middle;resizable=0;points=[];fontSize=16;" vertex="1" connectable="0" parent="RWUTQcGEIA5J2wbb4hyl-7">
          <mxGeometry x="-0.0058" y="-1" relative="1" as="geometry">
            <mxPoint as="offset" />
          </mxGeometry>
        </mxCell>
        <mxCell id="RWUTQcGEIA5J2wbb4hyl-9" value="&lt;p style=&quot;margin: 4px 0px 0px; text-align: center;&quot;&gt;&lt;span style=&quot;background-color: initial;&quot;&gt;&lt;font&gt;&lt;i&gt;&amp;lt;&amp;lt; Class &amp;gt;&amp;gt;&lt;/i&gt;&lt;/font&gt;&lt;/span&gt;&lt;/p&gt;&lt;p style=&quot;margin: 4px 0px 0px; text-align: center;&quot;&gt;EqualExpenseSplit&lt;/p&gt;" style="verticalAlign=top;align=left;overflow=fill;html=1;whiteSpace=wrap;strokeWidth=2;fontSize=16;fillColor=none;spacing=2;" vertex="1" parent="1">
          <mxGeometry x="-1550" y="540" width="220" height="60" as="geometry" />
        </mxCell>
        <mxCell id="RWUTQcGEIA5J2wbb4hyl-10" value="&lt;p style=&quot;margin: 4px 0px 0px; text-align: center;&quot;&gt;&lt;span style=&quot;background-color: initial;&quot;&gt;&lt;font&gt;&lt;i&gt;&amp;lt;&amp;lt; Class &amp;gt;&amp;gt;&lt;/i&gt;&lt;/font&gt;&lt;/span&gt;&lt;/p&gt;&lt;p style=&quot;margin: 4px 0px 0px; text-align: center;&quot;&gt;UnequalExpenseSplit&lt;/p&gt;" style="verticalAlign=top;align=left;overflow=fill;html=1;whiteSpace=wrap;strokeWidth=2;fontSize=16;fillColor=none;spacing=2;" vertex="1" parent="1">
          <mxGeometry x="-1320" y="540" width="230" height="60" as="geometry" />
        </mxCell>
        <mxCell id="RWUTQcGEIA5J2wbb4hyl-11" style="edgeStyle=orthogonalEdgeStyle;rounded=0;orthogonalLoop=1;jettySize=auto;html=1;entryX=0.5;entryY=1;entryDx=0;entryDy=0;strokeWidth=2;exitX=0.5;exitY=0;exitDx=0;exitDy=0;fontSize=16;" edge="1" parent="1" source="RWUTQcGEIA5J2wbb4hyl-10" target="RWUTQcGEIA5J2wbb4hyl-6">
          <mxGeometry relative="1" as="geometry">
            <mxPoint x="-1090" y="440" as="sourcePoint" />
            <mxPoint x="-983" y="370" as="targetPoint" />
          </mxGeometry>
        </mxCell>
        <mxCell id="RWUTQcGEIA5J2wbb4hyl-12" value="extends" style="edgeLabel;html=1;align=center;verticalAlign=middle;resizable=0;points=[];fontSize=16;" vertex="1" connectable="0" parent="RWUTQcGEIA5J2wbb4hyl-11">
          <mxGeometry x="-0.0058" y="-1" relative="1" as="geometry">
            <mxPoint as="offset" />
          </mxGeometry>
        </mxCell>
        <mxCell id="RWUTQcGEIA5J2wbb4hyl-14" value="&lt;p style=&quot;margin: 4px 0px 0px; text-align: center;&quot;&gt;&lt;span style=&quot;background-color: initial;&quot;&gt;&lt;font&gt;&lt;i&gt;&amp;lt;&amp;lt; Class &amp;gt;&amp;gt;&lt;/i&gt;&lt;/font&gt;&lt;/span&gt;&lt;/p&gt;&lt;p style=&quot;margin: 4px 0px 0px; text-align: center;&quot;&gt;PercentageExpenseSplit&lt;/p&gt;" style="verticalAlign=top;align=left;overflow=fill;html=1;whiteSpace=wrap;strokeWidth=2;fontSize=16;fillColor=none;spacing=2;" vertex="1" parent="1">
          <mxGeometry x="-1050" y="540" width="230" height="60" as="geometry" />
        </mxCell>
        <mxCell id="RWUTQcGEIA5J2wbb4hyl-15" style="edgeStyle=orthogonalEdgeStyle;rounded=0;orthogonalLoop=1;jettySize=auto;html=1;entryX=0.75;entryY=1;entryDx=0;entryDy=0;strokeWidth=2;exitX=0.477;exitY=0.018;exitDx=0;exitDy=0;fontSize=16;exitPerimeter=0;" edge="1" parent="1" source="RWUTQcGEIA5J2wbb4hyl-14" target="RWUTQcGEIA5J2wbb4hyl-6">
          <mxGeometry relative="1" as="geometry">
            <mxPoint x="-990" y="500" as="sourcePoint" />
            <mxPoint x="-865" y="370" as="targetPoint" />
          </mxGeometry>
        </mxCell>
        <mxCell id="RWUTQcGEIA5J2wbb4hyl-16" value="extends" style="edgeLabel;html=1;align=center;verticalAlign=middle;resizable=0;points=[];fontSize=16;" vertex="1" connectable="0" parent="RWUTQcGEIA5J2wbb4hyl-15">
          <mxGeometry x="-0.0058" y="-1" relative="1" as="geometry">
            <mxPoint as="offset" />
          </mxGeometry>
        </mxCell>
        <mxCell id="RWUTQcGEIA5J2wbb4hyl-17" value="&lt;p style=&quot;margin: 4px 0px 0px; text-align: center;&quot;&gt;&lt;span style=&quot;background-color: initial;&quot;&gt;&lt;font&gt;&lt;i&gt;&amp;lt;&amp;lt; Class &amp;gt;&amp;gt;&lt;/i&gt;&lt;/font&gt;&lt;/span&gt;&lt;/p&gt;&lt;p style=&quot;margin: 4px 0px 0px; text-align: center;&quot;&gt;Split&lt;/p&gt;&lt;hr style=&quot;border-style: solid;&quot;&gt;&lt;p style=&quot;margin: 0px 0px 0px 4px;&quot;&gt;&lt;font&gt;&lt;br&gt;&lt;/font&gt;&lt;/p&gt;&lt;p style=&quot;margin: 0px 0px 0px 4px;&quot;&gt;&amp;nbsp; &amp;nbsp;&lt;span style=&quot;background-color: transparent;&quot;&gt;&amp;nbsp;&lt;/span&gt;&lt;span style=&quot;background-color: transparent;&quot;&gt;User user;&lt;/span&gt;&lt;/p&gt;&lt;p style=&quot;margin: 0px 0px 0px 4px;&quot;&gt;&amp;nbsp; &amp;nbsp; double amountOwe;&lt;/p&gt;" style="verticalAlign=top;align=left;overflow=fill;html=1;whiteSpace=wrap;strokeWidth=2;fontSize=16;fillColor=none;spacing=2;" vertex="1" parent="1">
          <mxGeometry x="589.38" y="939" width="265" height="150" as="geometry" />
        </mxCell>
        <mxCell id="RWUTQcGEIA5J2wbb4hyl-27" style="edgeStyle=orthogonalEdgeStyle;rounded=0;orthogonalLoop=1;jettySize=auto;html=1;fontSize=16;strokeWidth=2;" edge="1" parent="1" source="RWUTQcGEIA5J2wbb4hyl-20" target="RWUTQcGEIA5J2wbb4hyl-6">
          <mxGeometry relative="1" as="geometry" />
        </mxCell>
        <mxCell id="RWUTQcGEIA5J2wbb4hyl-42" value="HAS-A" style="edgeLabel;html=1;align=center;verticalAlign=middle;resizable=0;points=[];fontSize=16;" vertex="1" connectable="0" parent="RWUTQcGEIA5J2wbb4hyl-27">
          <mxGeometry x="-0.1954" y="-3" relative="1" as="geometry">
            <mxPoint x="1" as="offset" />
          </mxGeometry>
        </mxCell>
        <mxCell id="RWUTQcGEIA5J2wbb4hyl-28" style="edgeStyle=orthogonalEdgeStyle;rounded=0;orthogonalLoop=1;jettySize=auto;html=1;fontSize=16;strokeWidth=2;exitX=0.25;exitY=1;exitDx=0;exitDy=0;entryX=1;entryY=0.5;entryDx=0;entryDy=0;" edge="1" parent="1" source="RWUTQcGEIA5J2wbb4hyl-20" target="RWUTQcGEIA5J2wbb4hyl-21">
          <mxGeometry relative="1" as="geometry">
            <Array as="points">
              <mxPoint x="-615" y="455" />
              <mxPoint x="-760" y="455" />
              <mxPoint x="-760" y="825" />
            </Array>
          </mxGeometry>
        </mxCell>
        <mxCell id="RWUTQcGEIA5J2wbb4hyl-43" value="HAS-A" style="edgeLabel;html=1;align=center;verticalAlign=middle;resizable=0;points=[];fontSize=16;" vertex="1" connectable="0" parent="RWUTQcGEIA5J2wbb4hyl-28">
          <mxGeometry x="-0.2539" y="1" relative="1" as="geometry">
            <mxPoint as="offset" />
          </mxGeometry>
        </mxCell>
        <mxCell id="RWUTQcGEIA5J2wbb4hyl-29" style="edgeStyle=orthogonalEdgeStyle;rounded=0;orthogonalLoop=1;jettySize=auto;html=1;entryX=0.5;entryY=0;entryDx=0;entryDy=0;fontSize=16;strokeWidth=2;" edge="1" parent="1" source="RWUTQcGEIA5J2wbb4hyl-20" target="RWUTQcGEIA5J2wbb4hyl-5">
          <mxGeometry relative="1" as="geometry" />
        </mxCell>
        <mxCell id="RWUTQcGEIA5J2wbb4hyl-44" value="HAS-A" style="edgeLabel;html=1;align=center;verticalAlign=middle;resizable=0;points=[];fontSize=16;" vertex="1" connectable="0" parent="RWUTQcGEIA5J2wbb4hyl-29">
          <mxGeometry x="-0.0142" y="1" relative="1" as="geometry">
            <mxPoint as="offset" />
          </mxGeometry>
        </mxCell>
        <mxCell id="RWUTQcGEIA5J2wbb4hyl-31" style="edgeStyle=orthogonalEdgeStyle;rounded=0;orthogonalLoop=1;jettySize=auto;html=1;entryX=0.5;entryY=0;entryDx=0;entryDy=0;fontSize=16;strokeWidth=2;" edge="1" parent="1" source="RWUTQcGEIA5J2wbb4hyl-20" target="RWUTQcGEIA5J2wbb4hyl-3">
          <mxGeometry relative="1" as="geometry" />
        </mxCell>
        <mxCell id="RWUTQcGEIA5J2wbb4hyl-55" value="HAS-A" style="edgeLabel;html=1;align=center;verticalAlign=middle;resizable=0;points=[];fontSize=16;" vertex="1" connectable="0" parent="RWUTQcGEIA5J2wbb4hyl-31">
          <mxGeometry x="-0.2107" relative="1" as="geometry">
            <mxPoint x="-1" as="offset" />
          </mxGeometry>
        </mxCell>
        <mxCell id="RWUTQcGEIA5J2wbb4hyl-20" value="&lt;p style=&quot;margin: 4px 0px 0px; text-align: center;&quot;&gt;&lt;span style=&quot;background-color: initial;&quot;&gt;&lt;font&gt;&lt;i&gt;&amp;lt;&amp;lt; Class &amp;gt;&amp;gt;&lt;/i&gt;&lt;/font&gt;&lt;/span&gt;&lt;/p&gt;&lt;p style=&quot;margin: 4px 0px 0px; text-align: center;&quot;&gt;ExpenseController&lt;/p&gt;&lt;hr style=&quot;border-style: solid;&quot;&gt;&lt;p style=&quot;margin: 0px 0px 0px 4px;&quot;&gt;&lt;font&gt;&lt;br&gt;&lt;/font&gt;&lt;/p&gt;&lt;p style=&quot;margin: 0px 0px 0px 4px;&quot;&gt;&amp;nbsp; &amp;nbsp;&amp;nbsp;&amp;nbsp;BalanceSheetController balanceSheetController;&lt;/p&gt;" style="verticalAlign=top;align=left;overflow=fill;html=1;whiteSpace=wrap;strokeWidth=2;fontSize=16;fillColor=none;spacing=2;" vertex="1" parent="1">
          <mxGeometry x="-720" y="70" width="420" height="130" as="geometry" />
        </mxCell>
        <mxCell id="RWUTQcGEIA5J2wbb4hyl-21" value="&lt;p style=&quot;margin: 4px 0px 0px; text-align: center;&quot;&gt;&lt;span style=&quot;background-color: initial;&quot;&gt;&lt;font&gt;&lt;i&gt;&amp;lt;&amp;lt; Class &amp;gt;&amp;gt;&lt;/i&gt;&lt;/font&gt;&lt;/span&gt;&lt;/p&gt;&lt;p style=&quot;margin: 4px 0px 0px; text-align: center;&quot;&gt;SplitFactory&lt;/p&gt;&lt;hr style=&quot;border-style: solid;&quot;&gt;&lt;p style=&quot;margin: 0px 0px 0px 4px;&quot;&gt;&lt;font&gt;&lt;br&gt;&lt;/font&gt;&lt;/p&gt;&lt;p style=&quot;margin: 0px 0px 0px 4px;&quot;&gt;&amp;nbsp; &amp;nbsp;&lt;span style=&quot;background-color: transparent;&quot;&gt;&amp;nbsp;&lt;/span&gt;&lt;span style=&quot;background-color: transparent;&quot;&gt;public static ExpenseSplit getSplitObject(ExpenseSplitType splitType) {&lt;/span&gt;&lt;br&gt;&lt;/p&gt;&lt;p style=&quot;margin: 0px 0px 0px 4px;&quot;&gt;&amp;nbsp; &amp;nbsp; &amp;nbsp; &amp;nbsp; return switch (splitType) {&lt;/p&gt;&lt;p style=&quot;margin: 0px 0px 0px 4px;&quot;&gt;&amp;nbsp; &amp;nbsp; &amp;nbsp; &amp;nbsp; &amp;nbsp; &amp;nbsp; case EQUAL -&amp;gt; new EqualExpenseSplit();&lt;/p&gt;&lt;p style=&quot;margin: 0px 0px 0px 4px;&quot;&gt;&amp;nbsp; &amp;nbsp; &amp;nbsp; &amp;nbsp; &amp;nbsp; &amp;nbsp; case UNEQUAL -&amp;gt; new UnequalExpenseSplit();&lt;/p&gt;&lt;p style=&quot;margin: 0px 0px 0px 4px;&quot;&gt;&amp;nbsp; &amp;nbsp; &amp;nbsp; &amp;nbsp; &amp;nbsp; &amp;nbsp; case PERCENTAGE -&amp;gt; new PercentageExpenseSplit();&lt;/p&gt;&lt;p style=&quot;margin: 0px 0px 0px 4px;&quot;&gt;&amp;nbsp; &amp;nbsp; &amp;nbsp; &amp;nbsp; &amp;nbsp; &amp;nbsp; default -&amp;gt; null;&lt;/p&gt;&lt;p style=&quot;margin: 0px 0px 0px 4px;&quot;&gt;&amp;nbsp; &amp;nbsp; &amp;nbsp; &amp;nbsp; };&lt;/p&gt;&lt;p style=&quot;margin: 0px 0px 0px 4px;&quot;&gt;&amp;nbsp; &amp;nbsp; }&lt;/p&gt;" style="verticalAlign=top;align=left;overflow=fill;html=1;whiteSpace=wrap;strokeWidth=2;fontSize=16;fillColor=none;spacing=2;" vertex="1" parent="1">
          <mxGeometry x="-1492.5" y="695" width="565" height="260" as="geometry" />
        </mxCell>
        <mxCell id="RWUTQcGEIA5J2wbb4hyl-34" style="edgeStyle=orthogonalEdgeStyle;rounded=0;orthogonalLoop=1;jettySize=auto;html=1;exitX=1;exitY=0.5;exitDx=0;exitDy=0;fontSize=16;strokeWidth=2;" edge="1" parent="1" source="RWUTQcGEIA5J2wbb4hyl-22" target="RWUTQcGEIA5J2wbb4hyl-24">
          <mxGeometry relative="1" as="geometry" />
        </mxCell>
        <mxCell id="RWUTQcGEIA5J2wbb4hyl-46" value="HAS-A" style="edgeLabel;html=1;align=center;verticalAlign=middle;resizable=0;points=[];fontSize=16;" vertex="1" connectable="0" parent="RWUTQcGEIA5J2wbb4hyl-34">
          <mxGeometry x="-0.0896" y="1" relative="1" as="geometry">
            <mxPoint x="-1" as="offset" />
          </mxGeometry>
        </mxCell>
        <mxCell id="RWUTQcGEIA5J2wbb4hyl-37" style="edgeStyle=orthogonalEdgeStyle;rounded=0;orthogonalLoop=1;jettySize=auto;html=1;entryX=0.5;entryY=1;entryDx=0;entryDy=0;fontSize=16;strokeWidth=2;" edge="1" parent="1" source="RWUTQcGEIA5J2wbb4hyl-22" target="RWUTQcGEIA5J2wbb4hyl-5">
          <mxGeometry relative="1" as="geometry" />
        </mxCell>
        <mxCell id="RWUTQcGEIA5J2wbb4hyl-45" value="HAS-A" style="edgeLabel;html=1;align=center;verticalAlign=middle;resizable=0;points=[];fontSize=16;" vertex="1" connectable="0" parent="RWUTQcGEIA5J2wbb4hyl-37">
          <mxGeometry x="-0.0098" y="1" relative="1" as="geometry">
            <mxPoint y="1" as="offset" />
          </mxGeometry>
        </mxCell>
        <mxCell id="RWUTQcGEIA5J2wbb4hyl-22" value="&lt;p style=&quot;margin: 4px 0px 0px; text-align: center;&quot;&gt;&lt;span style=&quot;background-color: initial;&quot;&gt;&lt;font&gt;&lt;i&gt;&amp;lt;&amp;lt; Class &amp;gt;&amp;gt;&lt;/i&gt;&lt;/font&gt;&lt;/span&gt;&lt;/p&gt;&lt;p style=&quot;margin: 4px 0px 0px; text-align: center;&quot;&gt;Group&lt;/p&gt;&lt;hr style=&quot;border-style: solid;&quot;&gt;&lt;p style=&quot;margin: 0px 0px 0px 4px;&quot;&gt;&lt;font&gt;&lt;br&gt;&lt;/font&gt;&lt;/p&gt;&lt;p style=&quot;margin: 0px 0px 0px 4px;&quot;&gt;&amp;nbsp; &amp;nbsp;&lt;span style=&quot;background-color: transparent;&quot;&gt;&amp;nbsp;&lt;/span&gt;&lt;span style=&quot;background-color: transparent;&quot;&gt;String groupId;&lt;/span&gt;&lt;/p&gt;&lt;p style=&quot;margin: 0px 0px 0px 4px;&quot;&gt;&amp;nbsp; &amp;nbsp; String groupName;&lt;/p&gt;&lt;p style=&quot;margin: 0px 0px 0px 4px;&quot;&gt;&amp;nbsp; &amp;nbsp; List&amp;lt;User&amp;gt; groupMembers;&lt;/p&gt;&lt;p style=&quot;margin: 0px 0px 0px 4px;&quot;&gt;&amp;nbsp; &amp;nbsp; List&amp;lt;Expense&amp;gt; expenseList;&lt;/p&gt;&lt;p style=&quot;margin: 0px 0px 0px 4px;&quot;&gt;&amp;nbsp; &amp;nbsp; ExpenseController expenseController;&lt;/p&gt;" style="verticalAlign=top;align=left;overflow=fill;html=1;whiteSpace=wrap;strokeWidth=2;fontSize=16;fillColor=none;spacing=2;" vertex="1" parent="1">
          <mxGeometry x="-670" y="1090" width="320" height="200" as="geometry" />
        </mxCell>
        <mxCell id="RWUTQcGEIA5J2wbb4hyl-32" style="edgeStyle=orthogonalEdgeStyle;rounded=0;orthogonalLoop=1;jettySize=auto;html=1;entryX=0;entryY=0.5;entryDx=0;entryDy=0;fontSize=16;strokeWidth=2;" edge="1" parent="1" source="RWUTQcGEIA5J2wbb4hyl-23" target="RWUTQcGEIA5J2wbb4hyl-22">
          <mxGeometry relative="1" as="geometry" />
        </mxCell>
        <mxCell id="RWUTQcGEIA5J2wbb4hyl-48" value="HAS-A" style="edgeLabel;html=1;align=center;verticalAlign=middle;resizable=0;points=[];fontSize=16;" vertex="1" connectable="0" parent="RWUTQcGEIA5J2wbb4hyl-32">
          <mxGeometry x="-0.0532" y="1" relative="1" as="geometry">
            <mxPoint x="-1" as="offset" />
          </mxGeometry>
        </mxCell>
        <mxCell id="RWUTQcGEIA5J2wbb4hyl-23" value="&lt;p style=&quot;margin: 4px 0px 0px; text-align: center;&quot;&gt;&lt;span style=&quot;background-color: initial;&quot;&gt;&lt;font&gt;&lt;i&gt;&amp;lt;&amp;lt; Class &amp;gt;&amp;gt;&lt;/i&gt;&lt;/font&gt;&lt;/span&gt;&lt;/p&gt;&lt;p style=&quot;margin: 4px 0px 0px; text-align: center;&quot;&gt;GroupController&lt;/p&gt;&lt;hr style=&quot;border-style: solid;&quot;&gt;&lt;p style=&quot;margin: 0px 0px 0px 4px;&quot;&gt;&lt;font&gt;&lt;br&gt;&lt;/font&gt;&lt;/p&gt;&lt;p style=&quot;margin: 0px 0px 0px 4px;&quot;&gt;&amp;nbsp; &amp;nbsp;&lt;span style=&quot;background-color: transparent;&quot;&gt;&amp;nbsp;&lt;/span&gt;&lt;span style=&quot;background-color: transparent;&quot;&gt;private List&amp;lt;Group&amp;gt; groupList;&lt;/span&gt;&lt;/p&gt;&lt;p style=&quot;margin: 0px 0px 0px 4px;&quot;&gt;&lt;span style=&quot;background-color: transparent;&quot;&gt;&lt;br&gt;&lt;/span&gt;&lt;/p&gt;&lt;p style=&quot;margin: 0px 0px 0px 4px;&quot;&gt;&lt;span style=&quot;background-color: transparent;&quot;&gt;&amp;nbsp; &amp;nbsp; void createNewGroup(String groupId,&amp;nbsp;&lt;/span&gt;&lt;/p&gt;&lt;p style=&quot;margin: 0px 0px 0px 4px;&quot;&gt;&lt;span style=&quot;background-color: transparent;&quot;&gt;&lt;span style=&quot;white-space: pre;&quot;&gt;&#x9;&lt;/span&gt;&lt;span style=&quot;white-space: pre;&quot;&gt;&#x9;&lt;/span&gt;&lt;span style=&quot;white-space: pre;&quot;&gt;&#x9;&lt;/span&gt;&lt;span style=&quot;white-space: pre;&quot;&gt;&#x9;&lt;/span&gt;&lt;span style=&quot;white-space: pre;&quot;&gt;&#x9;&lt;/span&gt;String groupName,&amp;nbsp;&lt;/span&gt;&lt;/p&gt;&lt;p style=&quot;margin: 0px 0px 0px 4px;&quot;&gt;&lt;span style=&quot;background-color: transparent;&quot;&gt;&lt;span style=&quot;white-space: pre;&quot;&gt;&#x9;&lt;/span&gt;&lt;span style=&quot;white-space: pre;&quot;&gt;&#x9;&lt;/span&gt;&lt;span style=&quot;white-space: pre;&quot;&gt;&#x9;&lt;/span&gt;&lt;span style=&quot;white-space: pre;&quot;&gt;&#x9;&lt;/span&gt;&lt;span style=&quot;white-space: pre;&quot;&gt;&#x9;&lt;/span&gt;User createdByUser) {&lt;/span&gt;&lt;/p&gt;&lt;p style=&quot;margin: 0px 0px 0px 4px;&quot;&gt;&lt;span style=&quot;background-color: transparent;&quot;&gt;&lt;br&gt;&lt;/span&gt;&lt;/p&gt;&lt;p style=&quot;margin: 0px 0px 0px 4px;&quot;&gt;&lt;span style=&quot;background-color: transparent;&quot;&gt;&amp;nbsp; &amp;nbsp; }&lt;/span&gt;&lt;/p&gt;&lt;p style=&quot;margin: 0px 0px 0px 4px;&quot;&gt;&lt;span style=&quot;background-color: transparent;&quot;&gt;&lt;br&gt;&lt;/span&gt;&lt;/p&gt;&lt;p style=&quot;margin: 0px 0px 0px 4px;&quot;&gt;&lt;span style=&quot;background-color: transparent;&quot;&gt;&amp;nbsp; &amp;nbsp; Group getGroup(String groupId) {&lt;/span&gt;&lt;/p&gt;&lt;p style=&quot;margin: 0px 0px 0px 4px;&quot;&gt;&lt;span style=&quot;background-color: transparent;&quot;&gt;&lt;br&gt;&lt;/span&gt;&lt;/p&gt;&lt;p style=&quot;margin: 0px 0px 0px 4px;&quot;&gt;&lt;span style=&quot;background-color: transparent;&quot;&gt;&amp;nbsp; &amp;nbsp; }&lt;/span&gt;&lt;/p&gt;" style="verticalAlign=top;align=left;overflow=fill;html=1;whiteSpace=wrap;strokeWidth=2;fontSize=16;fillColor=none;spacing=2;" vertex="1" parent="1">
          <mxGeometry x="-1420" y="1030" width="370" height="320" as="geometry" />
        </mxCell>
        <mxCell id="RWUTQcGEIA5J2wbb4hyl-24" value="&lt;p style=&quot;margin: 4px 0px 0px; text-align: center;&quot;&gt;&lt;span style=&quot;background-color: initial;&quot;&gt;&lt;font&gt;&lt;i&gt;&amp;lt;&amp;lt; Class &amp;gt;&amp;gt;&lt;/i&gt;&lt;/font&gt;&lt;/span&gt;&lt;/p&gt;&lt;p style=&quot;margin: 4px 0px 0px; text-align: center;&quot;&gt;User&lt;/p&gt;&lt;hr style=&quot;border-style: solid;&quot;&gt;&lt;p style=&quot;margin: 0px 0px 0px 4px;&quot;&gt;&lt;font&gt;&lt;br&gt;&lt;/font&gt;&lt;/p&gt;&lt;p style=&quot;margin: 0px 0px 0px 4px;&quot;&gt;&amp;nbsp; &amp;nbsp;&lt;span style=&quot;background-color: transparent;&quot;&gt;&amp;nbsp;&lt;/span&gt;&lt;span style=&quot;background-color: transparent;&quot;&gt;String userId;&lt;/span&gt;&lt;/p&gt;&lt;p style=&quot;margin: 0px 0px 0px 4px;&quot;&gt;&amp;nbsp; &amp;nbsp; String userName;&lt;/p&gt;&lt;p style=&quot;margin: 0px 0px 0px 4px;&quot;&gt;&amp;nbsp; &amp;nbsp; UserExpenseBalanceSheet userExpenseBalanceSheet;&lt;/p&gt;" style="verticalAlign=top;align=left;overflow=fill;html=1;whiteSpace=wrap;strokeWidth=2;fontSize=16;fillColor=none;spacing=2;" vertex="1" parent="1">
          <mxGeometry x="-110" y="1105" width="437.5" height="170" as="geometry" />
        </mxCell>
        <mxCell id="RWUTQcGEIA5J2wbb4hyl-33" style="edgeStyle=orthogonalEdgeStyle;rounded=0;orthogonalLoop=1;jettySize=auto;html=1;entryX=0.5;entryY=1;entryDx=0;entryDy=0;fontSize=16;strokeWidth=2;" edge="1" parent="1" source="RWUTQcGEIA5J2wbb4hyl-25" target="RWUTQcGEIA5J2wbb4hyl-24">
          <mxGeometry relative="1" as="geometry" />
        </mxCell>
        <mxCell id="RWUTQcGEIA5J2wbb4hyl-51" value="HAS-A" style="edgeLabel;html=1;align=center;verticalAlign=middle;resizable=0;points=[];fontSize=16;" vertex="1" connectable="0" parent="RWUTQcGEIA5J2wbb4hyl-33">
          <mxGeometry x="-0.3746" y="2" relative="1" as="geometry">
            <mxPoint as="offset" />
          </mxGeometry>
        </mxCell>
        <mxCell id="RWUTQcGEIA5J2wbb4hyl-25" value="&lt;p style=&quot;margin: 4px 0px 0px; text-align: center;&quot;&gt;&lt;span style=&quot;background-color: initial;&quot;&gt;&lt;font&gt;&lt;i&gt;&amp;lt;&amp;lt; Class &amp;gt;&amp;gt;&lt;/i&gt;&lt;/font&gt;&lt;/span&gt;&lt;/p&gt;&lt;p style=&quot;margin: 4px 0px 0px; text-align: center;&quot;&gt;UserController&lt;/p&gt;&lt;hr style=&quot;border-style: solid;&quot;&gt;&lt;p style=&quot;margin: 0px 0px 0px 4px;&quot;&gt;&lt;font&gt;&lt;br&gt;&lt;/font&gt;&lt;/p&gt;&lt;p style=&quot;margin: 0px 0px 0px 4px;&quot;&gt;&amp;nbsp; &amp;nbsp;&lt;span style=&quot;background-color: transparent;&quot;&gt;&amp;nbsp;&lt;/span&gt;&lt;span style=&quot;background-color: transparent;&quot;&gt;List&amp;lt;User&amp;gt; userList;&amp;nbsp;&lt;/span&gt;&lt;/p&gt;&lt;p style=&quot;margin: 0px 0px 0px 4px;&quot;&gt;&lt;span style=&quot;background-color: transparent;&quot;&gt;&lt;br&gt;&lt;/span&gt;&lt;/p&gt;&lt;p style=&quot;margin: 0px 0px 0px 4px;&quot;&gt;&lt;span style=&quot;background-color: transparent;&quot;&gt;&amp;nbsp; &amp;nbsp; public void addUser(User user) { }&lt;/span&gt;&lt;/p&gt;&lt;p style=&quot;margin: 0px 0px 0px 4px;&quot;&gt;&lt;span style=&quot;background-color: transparent;&quot;&gt;&lt;br&gt;&lt;/span&gt;&lt;/p&gt;&lt;p style=&quot;margin: 0px 0px 0px 4px;&quot;&gt;&lt;span style=&quot;background-color: transparent;&quot;&gt;&lt;/span&gt;&lt;/p&gt;&lt;p style=&quot;margin: 0px 0px 0px 4px;&quot;&gt;&amp;nbsp; &amp;nbsp; public User getUser(String userID) {&amp;nbsp;&lt;span style=&quot;background-color: transparent; color: light-dark(rgb(0, 0, 0), rgb(255, 255, 255));&quot;&gt;}&lt;/span&gt;&lt;/p&gt;&lt;div&gt;&lt;br&gt;&lt;/div&gt;&lt;div&gt;&amp;nbsp; &amp;nbsp; &amp;nbsp;public List&amp;lt;User&amp;gt; getAllUsers() {&lt;span style=&quot;background-color: transparent; color: light-dark(rgb(0, 0, 0), rgb(255, 255, 255));&quot;&gt;&amp;nbsp;}&lt;/span&gt;&lt;/div&gt;" style="verticalAlign=top;align=left;overflow=fill;html=1;whiteSpace=wrap;strokeWidth=2;fontSize=16;fillColor=none;spacing=2;" vertex="1" parent="1">
          <mxGeometry x="-675" y="1440" width="330" height="250" as="geometry" />
        </mxCell>
        <mxCell id="RWUTQcGEIA5J2wbb4hyl-40" style="edgeStyle=orthogonalEdgeStyle;rounded=0;orthogonalLoop=1;jettySize=auto;html=1;entryX=0.5;entryY=1;entryDx=0;entryDy=0;fontSize=16;strokeWidth=2;" edge="1" parent="1" source="RWUTQcGEIA5J2wbb4hyl-26" target="RWUTQcGEIA5J2wbb4hyl-23">
          <mxGeometry relative="1" as="geometry" />
        </mxCell>
        <mxCell id="RWUTQcGEIA5J2wbb4hyl-52" value="HAS-A" style="edgeLabel;html=1;align=center;verticalAlign=middle;resizable=0;points=[];fontSize=16;" vertex="1" connectable="0" parent="RWUTQcGEIA5J2wbb4hyl-40">
          <mxGeometry x="-0.1046" y="-1" relative="1" as="geometry">
            <mxPoint y="-1" as="offset" />
          </mxGeometry>
        </mxCell>
        <mxCell id="RWUTQcGEIA5J2wbb4hyl-41" style="edgeStyle=orthogonalEdgeStyle;rounded=0;orthogonalLoop=1;jettySize=auto;html=1;entryX=0;entryY=0.5;entryDx=0;entryDy=0;fontSize=16;strokeWidth=2;" edge="1" parent="1" source="RWUTQcGEIA5J2wbb4hyl-26" target="RWUTQcGEIA5J2wbb4hyl-25">
          <mxGeometry relative="1" as="geometry" />
        </mxCell>
        <mxCell id="RWUTQcGEIA5J2wbb4hyl-49" value="HAS-A" style="edgeLabel;html=1;align=center;verticalAlign=middle;resizable=0;points=[];fontSize=16;" vertex="1" connectable="0" parent="RWUTQcGEIA5J2wbb4hyl-41">
          <mxGeometry x="-0.1326" y="1" relative="1" as="geometry">
            <mxPoint x="-1" as="offset" />
          </mxGeometry>
        </mxCell>
        <mxCell id="RWUTQcGEIA5J2wbb4hyl-26" value="&lt;p style=&quot;margin: 4px 0px 0px; text-align: center;&quot;&gt;&lt;span style=&quot;background-color: initial;&quot;&gt;&lt;font&gt;&lt;i&gt;&amp;lt;&amp;lt; Class &amp;gt;&amp;gt;&lt;/i&gt;&lt;/font&gt;&lt;/span&gt;&lt;/p&gt;&lt;p style=&quot;margin: 4px 0px 0px; text-align: center;&quot;&gt;SplitWise&lt;/p&gt;&lt;hr style=&quot;border-style: solid;&quot;&gt;&lt;p style=&quot;margin: 0px 0px 0px 4px;&quot;&gt;&lt;font&gt;&lt;br&gt;&lt;/font&gt;&lt;/p&gt;&lt;p style=&quot;margin: 0px 0px 0px 4px;&quot;&gt;&amp;nbsp; &amp;nbsp;&lt;span style=&quot;background-color: transparent;&quot;&gt;&amp;nbsp;&lt;/span&gt;&lt;span style=&quot;background-color: transparent;&quot;&gt;UserController userController;&lt;/span&gt;&lt;br&gt;&lt;/p&gt;&lt;p style=&quot;margin: 0px 0px 0px 4px;&quot;&gt;&amp;nbsp; &amp;nbsp; GroupController groupController;&lt;/p&gt;&lt;p style=&quot;margin: 0px 0px 0px 4px;&quot;&gt;&amp;nbsp; &amp;nbsp; BalanceSheetController balanceSheetController;&lt;/p&gt;" style="verticalAlign=top;align=left;overflow=fill;html=1;whiteSpace=wrap;strokeWidth=2;fontSize=16;fillColor=none;spacing=2;" vertex="1" parent="1">
          <mxGeometry x="-1430" y="1480" width="390" height="170" as="geometry" />
        </mxCell>
      </root>
    </mxGraphModel>
  </diagram>
</mxfile>
